<mxfile host="app.diagrams.net" modified="2021-10-11T12:32:40.637Z" agent="5.0 (Windows NT 10.0; Win64; x64) AppleWebKit/537.36 (KHTML, like Gecko) Chrome/94.0.4606.71 Safari/537.36" etag="uM2fcBGr2ynVKJJLkHKk" version="15.5.0" type="github">
  <diagram id="EQMd6RFsLzzM15K5qlrQ" name="Page-1">
    <mxGraphModel dx="1038" dy="491" grid="1" gridSize="10" guides="1" tooltips="1" connect="1" arrows="1" fold="1" page="1" pageScale="1" pageWidth="827" pageHeight="1169" math="0" shadow="0">
      <root>
        <mxCell id="0" />
        <mxCell id="1" parent="0" />
        <mxCell id="7Fq_jqg63_Is3O7W3386-1" value="&lt;font style=&quot;font-size: 18px&quot;&gt;开始&lt;/font&gt;" style="rounded=1;whiteSpace=wrap;html=1;" vertex="1" parent="1">
          <mxGeometry x="341" y="90" width="80" height="50" as="geometry" />
        </mxCell>
        <mxCell id="7Fq_jqg63_Is3O7W3386-2" value="结束" style="rounded=1;whiteSpace=wrap;html=1;fontSize=18;" vertex="1" parent="1">
          <mxGeometry x="341" y="451" width="80" height="50" as="geometry" />
        </mxCell>
        <mxCell id="7Fq_jqg63_Is3O7W3386-3" value="选择日期或输入关键字" style="rounded=0;whiteSpace=wrap;html=1;fontSize=18;" vertex="1" parent="1">
          <mxGeometry x="329" y="180" width="113" height="60" as="geometry" />
        </mxCell>
        <mxCell id="7Fq_jqg63_Is3O7W3386-8" value="" style="endArrow=classic;html=1;rounded=0;fontSize=18;edgeStyle=orthogonalEdgeStyle;entryX=0.5;entryY=0;entryDx=0;entryDy=0;" edge="1" parent="1">
          <mxGeometry width="50" height="50" relative="1" as="geometry">
            <mxPoint x="381" y="239" as="sourcePoint" />
            <mxPoint x="381" y="279" as="targetPoint" />
            <Array as="points">
              <mxPoint x="381" y="239" />
            </Array>
          </mxGeometry>
        </mxCell>
        <mxCell id="7Fq_jqg63_Is3O7W3386-9" value="" style="endArrow=classic;html=1;rounded=0;fontSize=18;edgeStyle=orthogonalEdgeStyle;" edge="1" parent="1">
          <mxGeometry width="50" height="50" relative="1" as="geometry">
            <mxPoint x="381" y="140" as="sourcePoint" />
            <mxPoint x="381" y="180" as="targetPoint" />
            <Array as="points">
              <mxPoint x="381" y="180" />
            </Array>
          </mxGeometry>
        </mxCell>
        <mxCell id="7Fq_jqg63_Is3O7W3386-10" value="" style="endArrow=classic;html=1;rounded=0;fontSize=18;edgeStyle=orthogonalEdgeStyle;" edge="1" parent="1">
          <mxGeometry width="50" height="50" relative="1" as="geometry">
            <mxPoint x="381" y="430" as="sourcePoint" />
            <mxPoint x="381" y="450" as="targetPoint" />
            <Array as="points">
              <mxPoint x="381" y="420" />
            </Array>
          </mxGeometry>
        </mxCell>
        <mxCell id="7Fq_jqg63_Is3O7W3386-14" value="&lt;font style=&quot;font-size: 18px&quot;&gt;将数据返回前端&lt;/font&gt;" style="rounded=0;whiteSpace=wrap;html=1;" vertex="1" parent="1">
          <mxGeometry x="330" y="371" width="101" height="48" as="geometry" />
        </mxCell>
        <mxCell id="7Fq_jqg63_Is3O7W3386-16" value="&lt;span style=&quot;font-size: 18px&quot;&gt;服务器从数据库中查询&lt;/span&gt;" style="rounded=0;whiteSpace=wrap;html=1;" vertex="1" parent="1">
          <mxGeometry x="330" y="280" width="112" height="48" as="geometry" />
        </mxCell>
        <mxCell id="7Fq_jqg63_Is3O7W3386-19" value="" style="endArrow=classic;html=1;rounded=0;fontSize=18;edgeStyle=orthogonalEdgeStyle;entryX=0.5;entryY=0;entryDx=0;entryDy=0;" edge="1" parent="1">
          <mxGeometry width="50" height="50" relative="1" as="geometry">
            <mxPoint x="382" y="329" as="sourcePoint" />
            <mxPoint x="382" y="369" as="targetPoint" />
            <Array as="points">
              <mxPoint x="382" y="329" />
            </Array>
          </mxGeometry>
        </mxCell>
      </root>
    </mxGraphModel>
  </diagram>
</mxfile>
